<?xml version="1.0" standalone="no"?><!DOCTYPE svg PUBLIC "-//W3C//DTD SVG 1.1//EN" "http://www.w3.org/Graphics/SVG/1.1/DTD/svg11.dtd"><svg t="1568988028385" class="icon" viewBox="0 0 1024 1024" version="1.1" xmlns="http://www.w3.org/2000/svg" p-id="1999" xmlns:xlink="http://www.w3.org/1999/xlink" width="200" height="200"><defs><style type="text/css"></style></defs><path d="M825.856 367.616l-177.664-177.664c-10.752-10.24-14.848-25.6-11.264-40.448 3.584-14.336 14.848-25.6 29.696-29.696 14.336-3.584 29.696 0.512 40.448 11.264l248.32 248.32c26.112 26.112 7.68 70.656-29.184 70.656H98.304c-23.04 0-41.472-18.432-41.472-41.472s18.432-41.472 41.472-41.472h727.552zM375.808 834.56c15.872 16.384 15.36 41.984-0.512 57.856-15.872 15.872-41.984 16.384-57.856 0.512L69.12 645.12c-26.112-26.112-7.68-70.656 29.184-70.656h826.88c23.04 0 41.472 18.432 41.472 41.472s-18.432 41.472-41.472 41.472h-727.04L375.808 834.56z m0 0" p-id="2000" fill="#2c2c2c"></path></svg>