<?xml version="1.0" standalone="no"?><!DOCTYPE svg PUBLIC "-//W3C//DTD SVG 1.1//EN" "http://www.w3.org/Graphics/SVG/1.1/DTD/svg11.dtd"><svg t="1569463566657" class="icon" viewBox="0 0 1024 1024" version="1.1" xmlns="http://www.w3.org/2000/svg" p-id="2094" xmlns:xlink="http://www.w3.org/1999/xlink" width="200" height="200"><defs><style type="text/css"></style></defs><path d="M512 157.809c-192.225 0-348.62 156.385-348.62 348.62S319.774 855.05 512 855.05s348.62-156.385 348.62-348.62S704.226 157.808 512 157.808z m-256.46 348.62c0-141.414 115.046-256.46 256.46-256.46 55.521 0 106.936 17.787 148.961 47.892l-357.53 357.53c-30.095-42.025-47.892-93.44-47.892-148.962zM512 762.89c-52.664 0-101.652-15.974-142.428-43.305l355.584-355.584c27.33 40.766 43.305 89.774 43.305 142.428C768.46 647.844 653.414 762.89 512 762.89z" p-id="2095"></path></svg>