<?xml version="1.0" encoding="utf-8"?>
<!-- Generator: Adobe Illustrator 22.0.1, SVG Export Plug-In . SVG Version: 6.00 Build 0)  -->
<svg version="1.1" id="图层_1" xmlns="http://www.w3.org/2000/svg" xmlns:xlink="http://www.w3.org/1999/xlink" x="0px" y="0px"
	 viewBox="0 0 20 20" style="enable-background:new 0 0 20 20;" xml:space="preserve">
<style type="text/css">
	.st0{fill:#727171;}
</style>
<title>SPICON</title>
<path class="st0" d="M10,11.7C4.4,11.7,0,10,0,7.9c0-0.2,0.1-0.3,0.3-0.3s0.3,0.1,0.3,0.3C0.7,9.4,4.4,11,10,11s9.3-1.6,9.3-3.1V4.4
	c0-0.2,0.1-0.3,0.3-0.3C19.8,4,20,4.2,20,4.4v3.5C20,10,15.6,11.7,10,11.7z"/>
<path class="st0" d="M10,15.8c-5.6,0-10-1.7-10-3.8c0-0.2,0.1-0.3,0.3-0.3s0.3,0.1,0.3,0.3c0,1.5,3.8,3.1,9.3,3.1s9.3-1.6,9.3-3.1
	c0-0.2,0.1-0.3,0.3-0.3c0.2,0,0.3,0.1,0.3,0.3C20,14.2,15.6,15.8,10,15.8z"/>
<path class="st0" d="M10,19.3c-5.6,0-10-1.7-10-3.8c0-0.2,0.1-0.3,0.3-0.3s0.3,0.1,0.3,0.3c0,1.5,3.7,3.1,9.3,3.1s9.3-1.6,9.3-3.1
	c0-0.2,0.1-0.3,0.3-0.3c0.2,0,0.3,0.1,0.3,0.3C20,17.7,15.6,19.3,10,19.3z"/>
<path class="st0" d="M19.7,12.4c-0.2,0-0.3-0.1-0.3-0.3c0-0.4-0.2-0.7-0.5-0.9c-0.1-0.1-0.1-0.3,0-0.5s0.3-0.1,0.5,0
	c0.4,0.4,0.6,0.9,0.7,1.4C20,12.2,19.9,12.4,19.7,12.4C19.7,12.4,19.7,12.4,19.7,12.4z M0.3,12.4c-0.2,0-0.3-0.1-0.3-0.3
	c0-0.3,0.1-0.6,0.2-0.8c0.1-0.2,0.3-0.2,0.4-0.2c0.2,0.1,0.2,0.3,0.2,0.4c0,0,0,0,0,0c-0.1,0.2-0.1,0.3-0.1,0.5
	C0.7,12.2,0.5,12.4,0.3,12.4C0.3,12.4,0.3,12.4,0.3,12.4z M1.4,10.8c-0.2,0-0.3-0.1-0.3-0.3c0-0.1,0.1-0.2,0.1-0.3
	C1.6,10,2,9.7,2.5,9.6c0.2-0.1,0.4,0,0.4,0.2s0,0.4-0.2,0.4c-0.4,0.2-0.8,0.4-1.1,0.6C1.6,10.8,1.5,10.8,1.4,10.8L1.4,10.8z
	 M18,10.5c-0.1,0-0.1,0-0.2,0c-0.4-0.2-0.8-0.4-1.2-0.5c-0.2-0.1-0.3-0.2-0.2-0.4c0.1-0.2,0.2-0.3,0.4-0.2c0.4,0.2,0.8,0.3,1.3,0.5
	c0.2,0.1,0.2,0.3,0.1,0.4C18.3,10.4,18.2,10.5,18,10.5z M3.8,9.7c-0.2,0-0.3-0.1-0.3-0.3c0-0.1,0.1-0.3,0.2-0.3C4.1,9,4.6,8.9,5,8.8
	c0.2,0,0.3,0.1,0.4,0.3c0,0.2-0.1,0.3-0.2,0.4C4.7,9.5,4.3,9.6,3.8,9.7C3.9,9.7,3.9,9.7,3.8,9.7z M15.6,9.6
	C15.5,9.6,15.5,9.6,15.6,9.6c-0.5-0.1-0.9-0.2-1.3-0.3c-0.2,0-0.3-0.2-0.3-0.4c0-0.2,0.2-0.3,0.4-0.3c0,0,0,0,0,0
	c0.5,0.1,0.9,0.2,1.3,0.3c0.2,0,0.3,0.2,0.2,0.4C15.9,9.5,15.7,9.6,15.6,9.6L15.6,9.6z M6.4,9.2C6.2,9.2,6.1,9.1,6,8.9
	c0-0.2,0.1-0.3,0.3-0.4c0.4-0.1,0.9-0.1,1.3-0.2C7.9,8.4,8,8.5,8,8.7C8.1,8.9,7.9,9,7.7,9C7.3,9.1,6.9,9.1,6.4,9.2L6.4,9.2z M13,9.1
	L13,9.1c-0.5,0-0.9-0.1-1.3-0.1c-0.2,0-0.3-0.2-0.3-0.3c0-0.2,0.2-0.3,0.3-0.3c0,0,0,0,0,0c0.5,0,0.9,0.1,1.3,0.1
	c0.2,0,0.3,0.2,0.3,0.3C13.3,9,13.2,9.1,13,9.1L13,9.1z M9,9C8.8,9,8.7,8.8,8.7,8.6c0-0.2,0.1-0.3,0.3-0.3c0.3,0,0.7,0,1,0h0.3
	c0.2,0,0.3,0.1,0.3,0.3c0,0.2-0.1,0.3-0.3,0.3H10C9.7,9,9.4,9,9,9L9,9z"/>
<path class="st0" d="M0.3,6.9C0.1,6.9,0,6.8,0,6.6V4.8c0-0.2,0.1-0.3,0.3-0.3s0.3,0.1,0.3,0.3v1.9C0.7,6.8,0.5,6.9,0.3,6.9z"/>
<path class="st0" d="M0.3,15.1C0.1,15.1,0,15,0,14.8v-2.7c0-0.2,0.1-0.3,0.3-0.3s0.3,0.1,0.3,0.3v2.7C0.7,15,0.5,15.1,0.3,15.1z"/>
<path class="st0" d="M19.7,14.6c-0.2,0-0.3-0.1-0.3-0.3v-2.2c0-0.2,0.1-0.3,0.3-0.3c0.2,0,0.3,0.1,0.3,0.3v2.2
	C20,14.5,19.8,14.6,19.7,14.6z"/>
<path class="st0" d="M11.5,6.7c0,0-0.1,0-0.1,0c-0.9-0.3-1.8-0.3-2.7,0c-0.1,0-0.1,0-0.2,0C8,6.6,7.6,6.6,7.2,6.5
	C7,6.4,6.9,6.3,6.9,6.2c0,0,0-0.1-0.3-0.2C6.2,5.8,5.8,5.7,5.3,5.7H5.2C5.1,5.7,5,5.7,5,5.7C4.7,5.5,4.5,5.4,4.4,5.2
	C4.3,5,4.3,4.8,4.4,4.7c0,0,0,0,0.1,0C4.9,4.5,5,4.4,5,4.4c0,0-0.1-0.1-0.4-0.2C4.5,4.2,4.4,4.1,4.3,4c0-0.1,0-0.2,0-0.3
	C4.5,3.5,4.7,3.3,5,3.2c0,0,0.1,0,0.2-0.1h0.2c0.4,0,0.9-0.1,1.3-0.2c0.3-0.1,0.3-0.2,0.3-0.2c0-0.2,0.1-0.3,0.3-0.4
	C7.6,2.3,8,2.2,8.5,2.2c0,0,0.1,0,0.1,0c0.9,0.3,1.8,0.3,2.7,0c0.1,0,0.1,0,0.2,0c0.5,0,0.9,0.1,1.3,0.2c0.1,0,0.2,0.1,0.3,0.2
	c0,0.1,0,0.1,0,0.2c0,0,0.1,0.1,0.3,0.2c0.4,0.1,0.9,0.2,1.3,0.2h0.1c0.1,0,0.1,0,0.2,0.1c0.2,0.1,0.4,0.3,0.6,0.5
	c0.1,0.1,0.1,0.3-0.1,0.5c0,0-0.1,0-0.1,0c-0.2,0-0.3,0.1-0.5,0.2c0.1,0.1,0.3,0.2,0.4,0.2c0.1,0,0.2,0.1,0.2,0.2c0,0.1,0,0.2,0,0.3
	c-0.2,0.2-0.4,0.4-0.6,0.5c-0.1,0-0.1,0.1-0.2,0.1h-0.2c-0.4,0-0.9,0.1-1.3,0.2c-0.3,0.1-0.3,0.2-0.3,0.2c0,0,0,0.1,0,0.1
	c0,0.1-0.1,0.2-0.3,0.2C12.4,6.6,12,6.6,11.5,6.7L11.5,6.7z M7.5,5.9C7.8,5.9,8.1,6,8.5,6c1-0.3,2.1-0.3,3.1,0
	c0.3,0,0.6-0.1,0.9-0.1c0.1-0.3,0.4-0.5,0.7-0.6c0.5-0.2,1-0.2,1.5-0.2h0.1l0,0c-0.3-0.1-0.5-0.5-0.4-0.9c0.1-0.2,0.2-0.3,0.4-0.4
	l0,0h-0.1c-0.5,0-1-0.1-1.5-0.2c-0.3-0.1-0.6-0.3-0.7-0.6c-0.3-0.1-0.6-0.1-0.9-0.1c-1,0.3-2.1,0.3-3.1,0C8.2,2.9,7.8,2.9,7.5,3
	C7.4,3.3,7.1,3.5,6.8,3.5c-0.5,0.2-1,0.2-1.5,0.2H5.2l0,0c0.3,0.1,0.5,0.5,0.4,0.9C5.5,4.9,5.4,5,5.2,5.1l0,0h0.1
	c0.5,0,1,0.1,1.5,0.2C7.1,5.4,7.4,5.6,7.5,5.9L7.5,5.9z"/>
<path class="st0" d="M10,5.8c-1.6,0-3.2-0.5-3.2-1.4c0-0.2,0.1-0.3,0.3-0.3s0.3,0.1,0.3,0.3c0,0.2,0.9,0.7,2.6,0.7s2.6-0.5,2.6-0.7
	c0-0.2,0.1-0.3,0.3-0.3c0.2,0,0.3,0.1,0.3,0.3C13.2,5.3,11.6,5.8,10,5.8z"/>
<path class="st0" d="M12.9,4.8c-0.2,0-0.3-0.1-0.3-0.3c0-0.2-0.9-0.7-2.6-0.7S7.4,4.2,7.4,4.4c0,0.2-0.1,0.3-0.3,0.3
	S6.8,4.6,6.8,4.4c0-1.8,6.5-1.8,6.5,0C13.2,4.6,13.1,4.8,12.9,4.8C12.9,4.8,12.9,4.8,12.9,4.8z"/>
<path class="st0" d="M10,8.2C4.4,8.2,0,6.5,0,4.4s4.4-3.8,10-3.8s10,1.7,10,3.8S15.6,8.2,10,8.2z M10,1.3c-5.6,0-9.3,1.6-9.3,3.1
	S4.4,7.5,10,7.5s9.3-1.6,9.3-3.1S15.6,1.3,10,1.3L10,1.3z"/>
</svg>
