<svg id="图层_1" data-name="图层 1" xmlns="http://www.w3.org/2000/svg" viewBox="0 0 20 20"><defs><style>.cls-1{fill:#727171;}</style></defs><title>SPICON的副本</title><path class="cls-1" d="M10,12.152c-4.182,0-7.458-1.2-7.458-2.731a.125.125,0,0,1,.25,0C2.795,10.765,6.1,11.9,10,11.9s7.208-1.136,7.208-2.481V6.729a.125.125,0,0,1,.25,0V9.421C17.462,10.952,14.186,12.152,10,12.152Z"/><path class="cls-1" d="M10,15.292c-4.184,0-7.462-1.2-7.462-2.732a.125.125,0,0,1,.25,0c0,1.345,3.3,2.482,7.212,2.482s7.212-1.137,7.212-2.482a.125.125,0,1,1,.25,0C17.462,14.092,14.184,15.292,10,15.292Z"/><path class="cls-1" d="M10,17.935c-4.182,0-7.458-1.2-7.458-2.731a.125.125,0,0,1,.25,0c0,1.345,3.3,2.481,7.208,2.481s7.208-1.136,7.208-2.481a.125.125,0,1,1,.25,0C17.455,16.736,14.179,17.935,10,17.935Z"/><path class="cls-1" d="M17.337,12.685a.125.125,0,0,1-.125-.125,1.126,1.126,0,0,0-.385-.785A.125.125,0,0,1,17,11.6a1.364,1.364,0,0,1,.458.962A.125.125,0,0,1,17.337,12.685Zm-14.674,0a.125.125,0,0,1-.125-.125A1.161,1.161,0,0,1,2.687,12a.124.124,0,0,1,.169-.05.125.125,0,0,1,.05.169.913.913,0,0,0-.118.438A.125.125,0,0,1,2.663,12.685Zm.827-1.2a.125.125,0,0,1-.07-.229,5.286,5.286,0,0,1,.9-.48.125.125,0,1,1,.1.23,5,5,0,0,0-.86.457A.124.124,0,0,1,3.49,11.482ZM16.1,11.237a.126.126,0,0,1-.059-.015,6.82,6.82,0,0,0-.9-.389.125.125,0,0,1-.076-.16.123.123,0,0,1,.16-.076,7.036,7.036,0,0,1,.934.4.125.125,0,0,1-.059.235ZM5.313,10.68a.125.125,0,0,1-.036-.245c.306-.091.635-.173.98-.246a.127.127,0,0,1,.148.1.125.125,0,0,1-.1.148c-.338.071-.662.151-.96.24A.115.115,0,0,1,5.313,10.68Zm8.913-.126a.11.11,0,0,1-.03,0c-.308-.077-.634-.146-.97-.205a.124.124,0,0,1-.1-.145.12.12,0,0,1,.145-.1c.342.06.674.13.987.209a.125.125,0,0,1-.03.246ZM7.27,10.265a.125.125,0,0,1-.018-.249c.325-.047.662-.085,1-.114a.118.118,0,0,1,.135.114.125.125,0,0,1-.114.135c-.334.029-.666.066-.987.112Zm4.988-.061h-.014c-.322-.037-.655-.066-.99-.086a.126.126,0,0,1-.117-.133.124.124,0,0,1,.133-.117c.339.021.677.051,1,.088a.125.125,0,0,1-.014.249Zm-3-.112a.125.125,0,0,1,0-.25q.366-.013.743-.013h.263a.125.125,0,0,1,0,.25H10q-.372,0-.734.013Z"/><path class="cls-1" d="M2.663,8.554a.125.125,0,0,1-.125-.125V7.019a.125.125,0,0,1,.25,0v1.41A.125.125,0,0,1,2.663,8.554Z"/><path class="cls-1" d="M2.663,14.759a.125.125,0,0,1-.125-.125V12.57a.125.125,0,0,1,.25,0v2.064A.125.125,0,0,1,2.663,14.759Z"/><path class="cls-1" d="M17.33,14.392a.125.125,0,0,1-.125-.125V12.56a.125.125,0,1,1,.25,0v1.707A.125.125,0,0,1,17.33,14.392Z"/><path class="cls-1" d="M11.13,8.344a.122.122,0,0,1-.04-.006.441.441,0,0,1-.045-.018,3.641,3.641,0,0,0-2.1,0l-.04.015a.108.108,0,0,1-.052.006C8.521,8.31,8.2,8.262,7.894,8.2a.125.125,0,0,1-.1-.123.359.359,0,0,1,0-.04c.008-.053-.072-.154-.325-.249a3.083,3.083,0,0,0-1.026-.156H6.337a.194.194,0,0,1-.084-.019,1.641,1.641,0,0,1-.424-.367.125.125,0,0,1,.049-.191l.043-.016c.276-.089.4-.2.4-.271s-.125-.183-.4-.271l-.04-.014A.123.123,0,0,1,5.808,6.4a.125.125,0,0,1,.021-.11,1.6,1.6,0,0,1,.425-.368.13.13,0,0,1,.061-.019h.132a3.073,3.073,0,0,0,1.025-.156c.253-.094.333-.2.325-.253,0-.006,0-.029,0-.035a.125.125,0,0,1,.1-.123c.3-.061.627-.109.964-.142a.106.106,0,0,1,.052.006l.04.015a3.61,3.61,0,0,0,2.1,0l.04-.015a.137.137,0,0,1,.052-.006c.337.034.661.081.962.142a.124.124,0,0,1,.1.09.194.194,0,0,1,0,.069c-.008.056.072.158.325.251a3.088,3.088,0,0,0,1.026.156h.108a.2.2,0,0,1,.084.02,1.635,1.635,0,0,1,.426.367.126.126,0,0,1-.055.193l-.042.015c-.274.088-.4.2-.4.27s.125.183.4.271a.389.389,0,0,1,.046.017.125.125,0,0,1,.049.191,1.652,1.652,0,0,1-.424.366.124.124,0,0,1-.067.02h-.128a3.094,3.094,0,0,0-1.025.156c-.252.094-.333.2-.325.254a.222.222,0,0,1,0,.065.125.125,0,0,1-.1.092c-.3.061-.625.108-.962.142Zm-3.09-.369c.258.049.53.088.812.116A3.34,3.34,0,0,1,10,7.908a3.289,3.289,0,0,1,1.144.182c.271-.025.552-.064.817-.115.024-.128.134-.29.48-.419a3.362,3.362,0,0,1,1.114-.171h.089a1.638,1.638,0,0,0,.21-.161c-.283-.121-.428-.277-.428-.454s.15-.338.427-.455a1.627,1.627,0,0,0-.21-.16h-.087a3.352,3.352,0,0,1-1.115-.171c-.351-.131-.458-.294-.482-.419-.256-.049-.528-.087-.811-.116a3.812,3.812,0,0,1-2.29,0c-.27.025-.55.065-.816.115-.024.124-.131.288-.482.419a3.339,3.339,0,0,1-1.114.171H6.357a1.618,1.618,0,0,0-.211.161c.283.122.427.278.427.454s-.15.338-.426.454a1.592,1.592,0,0,0,.209.16h.088a3.354,3.354,0,0,1,1.115.171C7.91,7.687,8.017,7.851,8.041,7.975Z"/><path class="cls-1" d="M10,7.682c-1.134,0-2.338-.32-2.338-.912a.125.125,0,0,1,.25,0c0,.313.893.662,2.088.662s2.088-.35,2.088-.662a.125.125,0,0,1,.25,0C12.337,7.363,11.133,7.682,10,7.682Z"/><path class="cls-1" d="M12.212,6.9a.125.125,0,0,1-.125-.125c0-.312-.893-.662-2.088-.662s-2.088.349-2.088.662a.125.125,0,0,1-.25,0c0-.592,1.2-.912,2.338-.912s2.338.319,2.338.912A.125.125,0,0,1,12.212,6.9Z"/><path class="cls-1" d="M10,9.5C5.818,9.5,2.542,8.3,2.542,6.77S5.818,4.038,10,4.038s7.458,1.2,7.458,2.732S14.182,9.5,10,9.5Zm0-5.214c-3.907,0-7.208,1.137-7.208,2.482S6.093,9.253,10,9.253s7.208-1.137,7.208-2.482S13.907,4.288,10,4.288Z"/></svg>