<?xml version="1.0" standalone="no"?><!DOCTYPE svg PUBLIC "-//W3C//DTD SVG 1.1//EN" "http://www.w3.org/Graphics/SVG/1.1/DTD/svg11.dtd"><svg t="1564559768861" class="icon" viewBox="0 0 1024 1024" version="1.1" xmlns="http://www.w3.org/2000/svg" p-id="4621" xmlns:xlink="http://www.w3.org/1999/xlink" width="200" height="200"><defs><style type="text/css"></style></defs><path d="M653.22 306.31h-470.9l140.05-140.05c14-14 14-35.01 0-49.02-14.01-14-35.01-14-49.01 0L73.78 315.06c-7 7-10.5 15.76-10.5 24.51 0 8.76 3.5 17.51 10.5 24.51L271.59 561.9c14 14 35.01 14 49.02 0 14-14.01 14-35.01 0-49.02L184.06 376.34h469.15c131.29 0 236.33 105.04 236.33 236.33S784.51 848.99 653.22 848.99H294.35c-19.26 0-35.01 15.75-35.01 35.01 0 19.25 15.76 35.01 35.01 35.01h358.86c169.81 0 306.35-136.55 306.35-306.35 0.01-169.8-136.54-306.35-306.34-306.35z m0 0" p-id="4622"></path></svg>